REM DIRINDEX 1\5,1\2\6,1\2\7,1\3\8,1\3\9,1\4\10,1\4\11,1\4\12
REM DIRNAME cjc026,folder01,folder02,folder03,folder04,folder05,folder06,folder07,folder08,folder09,folder10,folder11
TITLE ""
FILE "EJE_DB3000_5th_3B_23.mp3" MP3
  TRACK 01 AUDIO
    TITLE "0:"
    INDEX 01 00:00:00
  TRACK 02 AUDIO
    TITLE "10:cjc026_09048"
    INDEX 01 00:00:08
  TRACK 03 AUDIO
    TITLE "0:"
    INDEX 01 00:02:68
  TRACK 04 AUDIO
    TITLE "11:cjc026_09049"
    INDEX 01 00:03:28
  TRACK 05 AUDIO
    TITLE "0:"
    INDEX 01 00:05:40
  TRACK 06 AUDIO
    TITLE "12:cjc026_09050"
    INDEX 01 00:06:00
  TRACK 07 AUDIO
    TITLE "0:"
    INDEX 01 00:08:61
  TRACK 08 AUDIO
    TITLE "10:cjc026_09051"
    INDEX 01 00:09:21
  TRACK 09 AUDIO
    TITLE "0:"
    INDEX 01 00:10:43
  TRACK 10 AUDIO
    TITLE "11:cjc026_09052"
    INDEX 01 00:11:06
  TRACK 11 AUDIO
    TITLE "0:"
    INDEX 01 00:12:53
  TRACK 12 AUDIO
    TITLE "12:cjc026_09053"
    INDEX 01 00:13:13
  TRACK 13 AUDIO
    TITLE "0:"
    INDEX 01 00:14:35
  TRACK 14 AUDIO
    TITLE "10:cjc026_09054"
    INDEX 01 00:14:70
  TRACK 15 AUDIO
    TITLE "0:"
    INDEX 01 00:16:23
  TRACK 16 AUDIO
    TITLE "11:cjc026_09055"
    INDEX 01 00:16:58
  TRACK 17 AUDIO
    TITLE "0:"
    INDEX 01 00:18:35
  TRACK 18 AUDIO
    TITLE "12:cjc026_09056"
    INDEX 01 00:18:70
  TRACK 19 AUDIO
    TITLE "0:"
    INDEX 01 00:20:22
  TRACK 20 AUDIO
    TITLE "10:cjc026_09057"
    INDEX 01 00:20:57
  TRACK 21 AUDIO
    TITLE "0:"
    INDEX 01 00:22:32
  TRACK 22 AUDIO
    TITLE "11:cjc026_09058"
    INDEX 01 00:22:67
  TRACK 23 AUDIO
    TITLE "0:"
    INDEX 01 00:24:63
  TRACK 24 AUDIO
    TITLE "12:cjc026_09059"
    INDEX 01 00:25:23
  TRACK 25 AUDIO
    TITLE "0:"
    INDEX 01 00:26:72
  TRACK 26 AUDIO
    TITLE "10:cjc026_09060"
    INDEX 01 00:27:32
  TRACK 27 AUDIO
    TITLE "0:"
    INDEX 01 00:29:06
  TRACK 28 AUDIO
    TITLE "11:cjc026_09061"
    INDEX 01 00:29:44
  TRACK 29 AUDIO
    TITLE "0:"
    INDEX 01 00:31:42
  TRACK 30 AUDIO
    TITLE "12:cjc026_09062"
    INDEX 01 00:32:03
  TRACK 31 AUDIO
    TITLE "0:"
    INDEX 01 00:33:52
  TRACK 32 AUDIO
    TITLE "10:cjc026_09063"
    INDEX 01 00:34:12
  TRACK 33 AUDIO
    TITLE "0:"
    INDEX 01 00:35:45
  TRACK 34 AUDIO
    TITLE "11:cjc026_09064"
    INDEX 01 00:36:08
  TRACK 35 AUDIO
    TITLE "0:"
    INDEX 01 00:38:14
  TRACK 36 AUDIO
    TITLE "12:cjc026_09065"
    INDEX 01 00:38:52
  TRACK 37 AUDIO
    TITLE "0:"
    INDEX 01 00:40:10
  TRACK 38 AUDIO
    TITLE "10:cjc026_09066"
    INDEX 01 00:40:45
  TRACK 39 AUDIO
    TITLE "0:"
    INDEX 01 00:42:19
  TRACK 40 AUDIO
    TITLE "11:cjc026_09067"
    INDEX 01 00:42:60
  TRACK 41 AUDIO
    TITLE "0:"
    INDEX 01 00:44:29
  TRACK 42 AUDIO
    TITLE "12:cjc026_09068"
    INDEX 01 00:44:64
  TRACK 43 AUDIO
    TITLE "0:"
    INDEX 01 00:46:35
  TRACK 44 AUDIO
    TITLE "10:cjc026_09069"
    INDEX 01 00:47:03
  TRACK 45 AUDIO
    TITLE "0:"
    INDEX 01 00:51:11
  TRACK 46 AUDIO
    TITLE "11:cjc026_09070"
    INDEX 01 00:51:46
  TRACK 47 AUDIO
    TITLE "0:"
    INDEX 01 00:53:50
  TRACK 48 AUDIO
    TITLE "12:cjc026_09071"
    INDEX 01 00:54:13
  TRACK 49 AUDIO
    TITLE "0:"
    INDEX 01 00:58:18
  TRACK 50 AUDIO
    TITLE "10:cjc026_09072"
    INDEX 01 00:58:53
  TRACK 51 AUDIO
    TITLE "0:"
    INDEX 01 01:00:68
  TRACK 52 AUDIO
    TITLE "11:cjc026_09073"
    INDEX 01 01:01:33
  TRACK 53 AUDIO
    TITLE "0:"
    INDEX 01 01:03:37
  TRACK 54 AUDIO
    TITLE "12:cjc026_09074"
    INDEX 01 01:03:72
  TRACK 55 AUDIO
    TITLE "0:"
    INDEX 01 01:06:07
  TRACK 56 AUDIO
    TITLE "10:cjc026_09075"
    INDEX 01 01:06:53
  TRACK 57 AUDIO
    TITLE "0:"
    INDEX 01 01:08:24
  TRACK 58 AUDIO
    TITLE "11:cjc026_09076"
    INDEX 01 01:08:62
  TRACK 59 AUDIO
    TITLE "0:"
    INDEX 01 01:10:74
  TRACK 60 AUDIO
    TITLE "12:cjc026_09077"
    INDEX 01 01:11:34
  TRACK 61 AUDIO
    TITLE "0:"
    INDEX 01 01:13:08
  TRACK 62 AUDIO
    TITLE "10:cjc026_09078"
    INDEX 01 01:13:46
  TRACK 63 AUDIO
    TITLE "0:"
    INDEX 01 01:15:09
  TRACK 64 AUDIO
    TITLE "11:cjc026_09079"
    INDEX 01 01:15:47
  TRACK 65 AUDIO
    TITLE "0:"
    INDEX 01 01:18:00
  TRACK 66 AUDIO
    TITLE "12:cjc026_09080"
    INDEX 01 01:18:36
  TRACK 67 AUDIO
    TITLE "0:"
    INDEX 01 01:19:74
  TRACK 68 AUDIO
    TITLE "10:cjc026_09081"
    INDEX 01 01:20:39
  TRACK 69 AUDIO
    TITLE "0:"
    INDEX 01 01:21:62
  TRACK 70 AUDIO
    TITLE "11:cjc026_09082"
    INDEX 01 01:22:24
  TRACK 71 AUDIO
    TITLE "0:"
    INDEX 01 01:24:58
  TRACK 72 AUDIO
    TITLE "12:cjc026_09083"
    INDEX 01 01:25:18
  TRACK 73 AUDIO
    TITLE "0:"
    INDEX 01 01:26:43
